# xmcd
#
# Track frame offsets: 
#        150
#        24035
#        42973
#        59253
#        73660
#        110240
#        125135
#        140220
#        159063
#        181100
#
# Disc length: 2924 seconds
#
# Revision: 4
# Processed by: cddbd v1.5.2PL0 Copyright (c) Steve Scherf et al.
# Submitted via: ExactAudioCopy v0.99pb5
#
DISCID=890b6a0a
DTITLE=Alabama - Greatest Hits
DYEAR=1986
DGENRE=Country
TTITLE0=She And I
TTITLE1=Mountain Music
TTITLE2=Feels So Right
TTITLE3=Old Flame
TTITLE4=Tennessee River (Live)
TTITLE5=Love In The First Degree
TTITLE6=40 Hour Week
TTITLE7=Why Lady Why
TTITLE8=The Fans
TTITLE9=My Home's In Alabama (Live)
EXTD=
EXTT0=
EXTT1=
EXTT2=
EXTT3=
EXTT4=
EXTT5=
EXTT6=
EXTT7=
EXTT8=
EXTT9=
PLAYORDER=
